<svg xmlns="http://www.w3.org/2000/svg" xmlns:xlink="http://www.w3.org/1999/xlink" width="1200" height="1200" viewBox="0 0 1200 1200"><g transform="translate(600 600) scale(0.69 0.69) rotate(45) translate(-600 -600)" style="fill:#1A1A1A"><svg fill="#1A1A1A" xmlns:x="http://ns.adobe.com/Extensibility/1.0/" xmlns:i="http://ns.adobe.com/AdobeIllustrator/10.0/" xmlns:graph="http://ns.adobe.com/Graphs/1.0/" xmlns="http://www.w3.org/2000/svg" xmlns:xlink="http://www.w3.org/1999/xlink" version="1.1" x="0px" y="0px" viewBox="0 0 100 100" enable-background="new 0 0 100 100" xml:space="preserve"><g><g i:extraneous="self"><polygon fill="#1A1A1A" points="68.171,5 76.637,13.464 5.05,85.051 7.878,87.879 82.293,13.464 77.829,9 91,9 91,22.172     86.535,17.707 12.122,92.121 14.95,94.949 86.535,23.364 95,31.828 95,5   "></polygon><polygon fill="#1A1A1A" points="9,57 30,57 30,56.968 32,56.968 32,46.333 28,46.333 28,53 9,53 9,29.628 30,29.628 30,25.628     9,25.628 9,9 28,9 28,15 16.5,15 16.5,19 40.009,19 40.009,35.628 16.5,35.628 16.5,46.499 20.5,46.499 20.5,39.628     44.009,39.628 44.009,15 32,15 32,9 52,9 52,30 56,30 56,19 65,19 65,15 56,15 56,9 65,9 65,5 32,5 5,5 5,29.628 5,75 9,75   "></polygon><polygon fill="#1A1A1A" points="91,35.019 78.869,35.019 78.869,39.019 91,39.019 91,53 69.75,53 69.75,47.417 65.75,47.417     65.75,53 65.75,55.852 65.75,66.925 69.75,66.925 69.75,57 91,57 91,80.628 67.75,80.628 67.75,84.628 91,84.628 91,91 57.852,91     57.852,74 82.833,74 82.833,64 78.833,64 78.833,70 56,70 53.852,70 46,70 46,74 53.852,74 53.852,91 40,91 40,78.313 36,78.313     36,91 25,91 25,95 95,95 95,84.628 95,53 95,35 91,35   "></polygon></g></g></svg></g></svg>